<svg xmlns="http://www.w3.org/2000/svg" viewBox="0 0 708.7 708.7"><defs><style>.cls-1{fill:#00a6fb;}</style></defs><g id="Layer_2" data-name="Layer 2"><g id="Layer_1-2" data-name="Layer 1"><path class="cls-1" d="M422.2,166.7a21.4,21.4,0,0,1,21.2.7c10.2,5,20.4,14.3,23.4,17,4.1,3.8,15.4,17.5,17,27.7,1.3,6.9,1.9,12.6-.2,20.6-16.3,55.8-39.3,61.9-48.7,60.9-4.1-.1-22.3-14.7-30-20.1-8.3-6.5-22.3-13.8-23.9-31.9C379.8,217.7,404.3,177.2,422.2,166.7Z"/><path class="cls-1" d="M268.7,170.9a21.4,21.4,0,0,1,21.2.7c10.2,5,20.4,14.3,23.4,17,4.1,3.8,15.4,17.5,17,27.7,1.3,6.9,1.9,12.6-.2,20.6-16.3,55.8-39.3,61.9-48.7,60.9-4.1-.1-22.3-14.7-30-20.1-8.3-6.5-22.3-13.8-23.9-31.9C226.4,221.8,250.7,181.3,268.7,170.9Z"/><path class="cls-1" d="M550.5,452.5c-11.5,22.1-29,40.1-48.5,53.7-44.8,31.4-99,43.1-151.8,42.6-112.8,0-160.7-49.5-162.4-51.2a148.2,148.2,0,0,1-42.1-83.7c-.9-5.7-2-23.9,4.4-26.2,5.4-2.1,10.3,3.3,13.4,7.3,1.4,1.8,15.2,16.4,21.4,21.4,19.6,15.8,34.4,24.3,58,32.4,20,6.9,53.5,13.3,86.9,14.4,66.6.4,101.8-1.8,158-23.4,1.4-.5,2.8-1.1,4.2-1.6,21.7-8.6,42.7-23.6,56.8-43.1,2.8-3.8,7-9.7,12.2-7.7,3.1,1.2,4,5.6,4.3,8.9C566.9,414.8,558.7,436.8,550.5,452.5Z"/><path class="cls-1" d="M181,0C81.2,0,0,81.2,0,181V527.7c0,99.8,81.2,181,181,181H527.7c99.8,0,181-81.2,181-181V0ZM682.2,521.9c0,88.4-71.9,160.3-160.2,160.3l-335.3.1c-88.3,0-160.2-72-160.2-160.3V186.7c0-88.3,71.9-160.2,160.2-160.2H682.2Z"/></g></g></svg>